<?xml version="1.0" encoding="UTF-8"?>
<svg xmlns="http://www.w3.org/2000/svg" viewBox="0 0 640 636" width="640" height="636" role="img" aria-labelledby="hmx-deps-title hmx-deps-desc">
  <title id="hmx-deps-title">HyMarkX package dependencies</title>
  <desc id="hmx-deps-desc">Dependency graph of the 7 HyMarkX packages in 5 layers, from ast at the top through parser, compiler and formatter to the hymarkx installer at the bottom. Only the parser package carries Markdown engine dependencies, and it sits inside a boundary marking that rule.</desc>
  <defs>
    <marker id="arrow" markerWidth="8" markerHeight="6" refX="7" refY="3" orient="auto">
      <polygon points="0 0, 8 3, 0 6" fill="#526176" fill-opacity="0.55"/>
    </marker>
    <marker id="arrow-accent" markerWidth="8" markerHeight="6" refX="7" refY="3" orient="auto">
      <polygon points="0 0, 8 3, 0 6" fill="#2563eb" fill-opacity="0.85"/>
    </marker>
  </defs>
  <rect width="100%" height="100%" fill="#f8fafc"/>

  <rect x="216" y="112" width="208" height="96" rx="8" fill="#2563eb" fill-opacity="0.04" stroke="#2563eb" stroke-opacity="0.4" stroke-width="1" stroke-dasharray="4,4"/>
  <rect x="228" y="105" width="156" height="14" fill="#f8fafc"/>
  <text x="234" y="116" fill="#2563eb" font-size="8" font-family="ui-monospace, SFMono-Regular, Menlo, Consolas, monospace" letter-spacing="0.12em">MARKDOWN ENGINE / ADR-0005</text>

  <g>
    <path d="M 192,312 V 368" fill="none" stroke="#526176" stroke-width="1.2" stroke-opacity="0.55" marker-end="url(#arrow)"/>
    <path d="M 392,312 V 328 Q 392,336 384,336 H 256 Q 248,336 248,344 V 368" fill="none" stroke="#526176" stroke-width="1.2" stroke-opacity="0.55" marker-end="url(#arrow)"/>
    <path d="M 292,200 V 212 Q 292,220 284,220 H 228 Q 220,220 220,228 V 256" fill="none" stroke="#2563eb" stroke-width="1.2" stroke-opacity="0.85" marker-end="url(#arrow-accent)"/>
    <path d="M 348,200 V 228 Q 348,236 356,236 H 412 Q 420,236 420,244 V 256" fill="none" stroke="#2563eb" stroke-width="1.2" stroke-opacity="0.85" marker-end="url(#arrow-accent)"/>
    <path d="M 220,424 V 444 Q 220,452 228,452 H 312 Q 320,452 320,460 V 480" fill="none" stroke="#526176" stroke-width="1.2" stroke-opacity="0.55" marker-end="url(#arrow)"/>
    <path d="M 248,312 V 336 Q 248,344 256,344 H 384 Q 392,344 392,352 V 368" fill="none" stroke="#526176" stroke-width="1.2" stroke-opacity="0.55" marker-end="url(#arrow)"/>
    <path d="M 448,312 V 368" fill="none" stroke="#526176" stroke-width="1.2" stroke-opacity="0.55" marker-end="url(#arrow)"/>
    <path d="M 320,88 V 144" fill="none" stroke="#2563eb" stroke-width="1.2" stroke-opacity="0.85" marker-end="url(#arrow-accent)"/>
  </g>

    <rect x="240" y="32" width="160" height="56" rx="6" fill="#f8fafc"/>
    <rect x="240" y="32" width="160" height="56" rx="6" fill="#ffffff" stroke="#cbd5e1" stroke-width="1"/>
    <text x="320" y="58" fill="#172033" font-size="13" font-weight="600" font-family="-apple-system, BlinkMacSystemFont, 'Segoe UI', Roboto, Helvetica, Arial, sans-serif" text-anchor="middle">ast</text>
    <text x="320" y="74" fill="#7c8798" font-size="9" font-family="ui-monospace, SFMono-Regular, Menlo, Consolas, monospace" text-anchor="middle">0 external</text>
    <rect x="140" y="368" width="160" height="56" rx="6" fill="#f8fafc"/>
    <rect x="140" y="368" width="160" height="56" rx="6" fill="#ffffff" stroke="#cbd5e1" stroke-width="1"/>
    <text x="220" y="394" fill="#172033" font-size="13" font-weight="600" font-family="-apple-system, BlinkMacSystemFont, 'Segoe UI', Roboto, Helvetica, Arial, sans-serif" text-anchor="middle">cli</text>
    <text x="220" y="410" fill="#7c8798" font-size="9" font-family="ui-monospace, SFMono-Regular, Menlo, Consolas, monospace" text-anchor="middle">0 external</text>
    <rect x="140" y="256" width="160" height="56" rx="6" fill="#f8fafc"/>
    <rect x="140" y="256" width="160" height="56" rx="6" fill="#ffffff" stroke="#cbd5e1" stroke-width="1"/>
    <text x="220" y="282" fill="#172033" font-size="13" font-weight="600" font-family="-apple-system, BlinkMacSystemFont, 'Segoe UI', Roboto, Helvetica, Arial, sans-serif" text-anchor="middle">compiler</text>
    <text x="220" y="298" fill="#7c8798" font-size="9" font-family="ui-monospace, SFMono-Regular, Menlo, Consolas, monospace" text-anchor="middle">3 external</text>
    <rect x="340" y="256" width="160" height="56" rx="6" fill="#f8fafc"/>
    <rect x="340" y="256" width="160" height="56" rx="6" fill="#ffffff" stroke="#cbd5e1" stroke-width="1"/>
    <text x="420" y="282" fill="#172033" font-size="13" font-weight="600" font-family="-apple-system, BlinkMacSystemFont, 'Segoe UI', Roboto, Helvetica, Arial, sans-serif" text-anchor="middle">formatter</text>
    <text x="420" y="298" fill="#7c8798" font-size="9" font-family="ui-monospace, SFMono-Regular, Menlo, Consolas, monospace" text-anchor="middle">0 external</text>
    <rect x="240" y="480" width="160" height="56" rx="6" fill="#f8fafc"/>
    <rect x="240" y="480" width="160" height="56" rx="6" fill="#ffffff" stroke="#cbd5e1" stroke-width="1"/>
    <text x="320" y="506" fill="#172033" font-size="13" font-weight="600" font-family="-apple-system, BlinkMacSystemFont, 'Segoe UI', Roboto, Helvetica, Arial, sans-serif" text-anchor="middle">hymarkx</text>
    <text x="320" y="522" fill="#7c8798" font-size="9" font-family="ui-monospace, SFMono-Regular, Menlo, Consolas, monospace" text-anchor="middle">0 external</text>
    <rect x="340" y="368" width="160" height="56" rx="6" fill="#f8fafc"/>
    <rect x="340" y="368" width="160" height="56" rx="6" fill="#ffffff" stroke="#cbd5e1" stroke-width="1"/>
    <text x="420" y="394" fill="#172033" font-size="13" font-weight="600" font-family="-apple-system, BlinkMacSystemFont, 'Segoe UI', Roboto, Helvetica, Arial, sans-serif" text-anchor="middle">language-server</text>
    <text x="420" y="410" fill="#7c8798" font-size="9" font-family="ui-monospace, SFMono-Regular, Menlo, Consolas, monospace" text-anchor="middle">0 external</text>
    <rect x="240" y="144" width="160" height="56" rx="6" fill="#f8fafc"/>
    <rect x="240" y="144" width="160" height="56" rx="6" fill="#eef4ff" stroke="#2563eb" stroke-width="1.6"/>
    <text x="320" y="170" fill="#172033" font-size="13" font-weight="600" font-family="-apple-system, BlinkMacSystemFont, 'Segoe UI', Roboto, Helvetica, Arial, sans-serif" text-anchor="middle">parser</text>
    <text x="320" y="186" fill="#2563eb" font-size="9" font-family="ui-monospace, SFMono-Regular, Menlo, Consolas, monospace" text-anchor="middle">16 engine deps</text>

  <line x1="32" y1="556" x2="608" y2="556" stroke="#cbd5e1" stroke-width="0.8"/>
    <rect x="32" y="571" width="14" height="10" rx="2" fill="#eef4ff" stroke="#2563eb" stroke-width="1.2"/>
    <text x="54" y="580" fill="#526176" font-size="8" font-family="ui-monospace, SFMono-Regular, Menlo, Consolas, monospace" letter-spacing="0.1em">REACHES THE ENGINE</text>
    <line x1="224" y1="576" x2="238" y2="576" stroke="#526176" stroke-width="1.2"/>
    <text x="246" y="580" fill="#526176" font-size="8" font-family="ui-monospace, SFMono-Regular, Menlo, Consolas, monospace" letter-spacing="0.1em">DEPENDS ON</text>
    <line x1="416" y1="576" x2="430" y2="576" stroke="#526176" stroke-width="1.2" stroke-dasharray="3,3"/>
    <text x="438" y="580" fill="#526176" font-size="8" font-family="ui-monospace, SFMono-Regular, Menlo, Consolas, monospace" letter-spacing="0.1em">IMPLIED, NOT DRAWN</text>
  <text x="32" y="602" fill="#7c8798" font-size="9" font-family="-apple-system, BlinkMacSystemFont, 'Segoe UI', Roboto, Helvetica, Arial, sans-serif">Arrows point to the packages that depend on each box.</text>
  <text x="32" y="616" fill="#7c8798" font-size="9" font-family="-apple-system, BlinkMacSystemFont, 'Segoe UI', Roboto, Helvetica, Arial, sans-serif">Dependencies another path already implies are left out, so every line carries information.</text>
</svg>
